{
  "accessors": [
    {
      "bufferView": 2,
      "componentType": 5126,
      "count": 16,
      "max": [
        1.725967288017273,
        1.0697396993637085,
        1.145265817642212
      ],
      "min": [
        -1.7321646213531494,
        0.6828891038894653,
        -1.145265817642212
      ],
      "type": "VEC3"
    },
    {
      "bufferView": 2,
      "byteOffset": 192,
      "componentType": 5126,
      "count": 16,
      "max": [
        0.47327229380607605,
        0.9529514312744141,
        0.45395851135253906
      ],
      "min": [
        -0.4899994134902954,
        0.7441924214363098,
        -0.45395851135253906
      ],
      "type": "VEC3"
    },
    {
      "bufferView": 3,
      "componentType": 5126,
      "count": 16,
      "max": [
        0.1837879717350006,
        0.5445737838745117,
        0.9720641374588013,
        1.0
      ],
      "min": [
        -0.20592880249023438,
        -0.49727490544319153,
        0.8371289372444153,
        1.0
      ],
      "type": "VEC4"
    },
    {
      "bufferView": 1,
      "componentType": 5126,
      "count": 16,
      "max": [
        0.3237822651863098,
        0.4579911231994629
      ],
      "min": [
        0.002649148227646947,
        0.0026732368860393763
      ],
      "type": "VEC2"
    },
    {
      "bufferView": 0,
      "componentType": 5125,
      "count": 78,
      "type": "SCALAR"
    },
    {
      "bufferView": 2,
      "byteOffset": 384,
      "componentType": 5126,
      "count": 57,
      "max": [
        1.2321841716766357,
        0.07618500292301178,
        1.3037872314453125
      ],
      "min": [
        0.7924692630767822,
        -0.36352986097335815,
        1.172758936882019
      ],
      "type": "VEC3"
    },
    {
      "bufferView": 2,
      "byteOffset": 1068,
      "componentType": 5126,
      "count": 57,
      "max": [
        0.8487279415130615,
        0.8487279415130615,
        1.0
      ],
      "min": [
        -0.8487279415130615,
        -0.8487279415130615,
        0.5288298726081848
      ],
      "type": "VEC3"
    },
    {
      "bufferView": 3,
      "byteOffset": 256,
      "componentType": 5126,
      "count": 57,
      "max": [
        -0.23835870623588562,
        -0.4370267987251282,
        0.8395066261291504,
        1.0
      ],
      "min": [
        -0.675977349281311,
        -0.8827559947967529,
        -0.8395072817802429,
        1.0
      ],
      "type": "VEC4"
    },
    {
      "bufferView": 1,
      "byteOffset": 128,
      "componentType": 5126,
      "count": 57,
      "max": [
        0.9888162612915039,
        0.05944636091589928
      ],
      "min": [
        0.9320192933082581,
        0.002649451605975628
      ],
      "type": "VEC2"
    },
    {
      "bufferView": 0,
      "byteOffset": 312,
      "componentType": 5125,
      "count": 288,
      "type": "SCALAR"
    },
    {
      "bufferView": 2,
      "byteOffset": 1752,
      "componentType": 5126,
      "count": 96,
      "max": [
        1.8331422805786133,
        -0.11482109874486923,
        2.2373545169830322
      ],
      "min": [
        0.1915111541748047,
        -0.17252394556999207,
        1.2399154901504517
      ],
      "type": "VEC3"
    },
    {
      "bufferView": 2,
      "byteOffset": 2904,
      "componentType": 5126,
      "count": 96,
      "max": [
        0.716270923614502,
        1.0,
        0.8248432278633118
      ],
      "min": [
        -0.7162706255912781,
        -1.0,
        -0.8248463273048401
      ],
      "type": "VEC3"
    },
    {
      "bufferView": 3,
      "byteOffset": 1168,
      "componentType": 5126,
      "count": 96,
      "max": [
        0.9550145864486694,
        0.9999299645423889,
        0.5642691254615784,
        1.0
      ],
      "min": [
        -0.9232781529426575,
        -0.9991450309753418,
        -0.929934024810791,
        1.0
      ],
      "type": "VEC4"
    },
    {
      "bufferView": 1,
      "byteOffset": 584,
      "componentType": 5126,
      "count": 96,
      "max": [
        0.9384404420852661,
        0.15956217050552368
      ],
      "min": [
        0.706368625164032,
        0.002644576132297516
      ],
      "type": "VEC2"
    },
    {
      "bufferView": 0,
      "byteOffset": 1464,
      "componentType": 5125,
      "count": 240,
      "type": "SCALAR"
    },
    {
      "bufferView": 2,
      "byteOffset": 4056,
      "componentType": 5126,
      "count": 150,
      "max": [
        1.6039865016937256,
        -1.0243226289749146,
        -0.9344378113746643
      ],
      "min": [
        1.1026278734207153,
        -1.0768097639083862,
        -1.0371507406234741
      ],
      "type": "VEC3"
    },
    {
      "bufferView": 2,
      "byteOffset": 5856,
      "componentType": 5126,
      "count": 150,
      "max": [
        0.9807858467102051,
        0.0,
        0.9807853698730469
      ],
      "min": [
        -0.9807862043380737,
        -0.6657211780548096,
        -0.9807860255241394
      ],
      "type": "VEC3"
    },
    {
      "bufferView": 3,
      "byteOffset": 2704,
      "componentType": 5126,
      "count": 150,
      "max": [
        0.6529282927513123,
        1.0,
        0.6529300212860107,
        1.0
      ],
      "min": [
        -0.9893473982810974,
        -1.0,
        -0.6529268026351929,
        1.0
      ],
      "type": "VEC4"
    },
    {
      "bufferView": 1,
      "byteOffset": 1352,
      "componentType": 5126,
      "count": 150,
      "max": [
        0.9499367475509644,
        0.21540963649749756
      ],
      "min": [
        0.3288821876049042,
        0.002642333973199129
      ],
      "type": "VEC2"
    },
    {
      "bufferView": 0,
      "byteOffset": 2424,
      "componentType": 5125,
      "count": 414,
      "type": "SCALAR"
    },
    {
      "bufferView": 2,
      "byteOffset": 7656,
      "componentType": 5126,
      "count": 139,
      "max": [
        1.7967240810394287,
        0.7038095593452454,
        1.1889369487762451
      ],
      "min": [
        -1.7932727336883545,
        -1.0288069248199463,
        -1.1889369487762451
      ],
      "type": "VEC3"
    },
    {
      "bufferView": 2,
      "byteOffset": 9324,
      "componentType": 5126,
      "count": 139,
      "max": [
        0.9013086557388306,
        0.799127459526062,
        0.9901646971702576
      ],
      "min": [
        -0.9013089537620544,
        -1.0,
        -0.9901646971702576
      ],
      "type": "VEC3"
    },
    {
      "bufferView": 3,
      "byteOffset": 5104,
      "componentType": 5126,
      "count": 139,
      "max": [
        0.9968332052230835,
        0.9557766914367676,
        1.0,
        1.0
      ],
      "min": [
        -1.0,
        -0.984896183013916,
        -0.999201238155365,
        1.0
      ],
      "type": "VEC4"
    },
    {
      "bufferView": 1,
      "byteOffset": 2552,
      "componentType": 5126,
      "count": 139,
      "max": [
        0.98227459192276,
        0.9973534941673279
      ],
      "min": [
        0.0026459633372724056,
        0.002643989399075508
      ],
      "type": "VEC2"
    },
    {
      "bufferView": 0,
      "byteOffset": 4080,
      "componentType": 5125,
      "count": 582,
      "type": "SCALAR"
    },
    {
      "bufferView": 2,
      "byteOffset": 10992,
      "componentType": 5126,
      "count": 136,
      "max": [
        1.4443249702453613,
        -1.025475263595581,
        -0.11128532886505127
      ],
      "min": [
        1.262287974357605,
        -1.0813603401184082,
        -0.684052050113678
      ],
      "type": "VEC3"
    },
    {
      "bufferView": 2,
      "byteOffset": 12624,
      "componentType": 5126,
      "count": 136,
      "max": [
        0.9945232272148132,
        0.0,
        1.0
      ],
      "min": [
        -0.9945226907730103,
        -0.6898113489151001,
        -1.0
      ],
      "type": "VEC3"
    },
    {
      "bufferView": 3,
      "byteOffset": 7328,
      "componentType": 5126,
      "count": 136,
      "max": [
        0.8620895743370056,
        1.0,
        0.8063962459564209,
        1.0
      ],
      "min": [
        -0.7658142447471619,
        -1.0,
        -0.9578900337219238,
        1.0
      ],
      "type": "VEC4"
    },
    {
      "bufferView": 1,
      "byteOffset": 3664,
      "componentType": 5126,
      "count": 136,
      "max": [
        0.9965372681617737,
        0.19380837678909302
      ],
      "min": [
        0.9210414290428162,
        0.002657828852534294
      ],
      "type": "VEC2"
    },
    {
      "bufferView": 0,
      "byteOffset": 6408,
      "componentType": 5125,
      "count": 384,
      "type": "SCALAR"
    },
    {
      "bufferView": 2,
      "byteOffset": 14256,
      "componentType": 5126,
      "count": 144,
      "max": [
        1.5425305366516113,
        -1.0141102075576782,
        -0.0008765310049057007
      ],
      "min": [
        1.1640827655792236,
        -1.038175344467163,
        -0.816708505153656
      ],
      "type": "VEC3"
    },
    {
      "bufferView": 2,
      "byteOffset": 15984,
      "componentType": 5126,
      "count": 144,
      "max": [
        0.9775670170783997,
        -0.21060369908809662,
        0.9775693416595459
      ],
      "min": [
        -0.9775678515434265,
        -0.9993903636932373,
        -0.9775699377059937
      ],
      "type": "VEC3"
    },
    {
      "bufferView": 3,
      "byteOffset": 9504,
      "componentType": 5126,
      "count": 144,
      "max": [
        0.9418045282363892,
        0.9761799573898315,
        0.6906160712242126,
        1.0
      ],
      "min": [
        0.060279298573732376,
        -0.9735479950904846,
        -0.7928650379180908,
        1.0
      ],
      "type": "VEC4"
    },
    {
      "bufferView": 1,
      "byteOffset": 4752,
      "componentType": 5126,
      "count": 144,
      "max": [
        0.9960964322090149,
        0.16896086931228638
      ],
      "min": [
        0.9320637583732605,
        0.06611528247594833
      ],
      "type": "VEC2"
    },
    {
      "bufferView": 0,
      "byteOffset": 7944,
      "componentType": 5125,
      "count": 660,
      "type": "SCALAR"
    }
  ],
  "asset": {
    "extras": {
      "author": "Outlier Spa (https://sketchfab.com/outlier_spa)",
      "license": "CC-BY-4.0 (http://creativecommons.org/licenses/by/4.0/)",
      "source": "https://sketchfab.com/3d-models/vintage-tv-54b56ce71d054d60ab31425757a45cf7",
      "title": "Vintage TV"
    },
    "generator": "Sketchfab-15.77.0",
    "version": "2.0"
  },
  "bufferViews": [
    {
      "buffer": 0,
      "byteLength": 10584,
      "name": "floatBufferViews",
      "target": 34963
    },
    {
      "buffer": 0,
      "byteLength": 5904,
      "byteOffset": 10584,
      "byteStride": 8,
      "name": "floatBufferViews",
      "target": 34962
    },
    {
      "buffer": 0,
      "byteLength": 17712,
      "byteOffset": 16488,
      "byteStride": 12,
      "name": "floatBufferViews",
      "target": 34962
    },
    {
      "buffer": 0,
      "byteLength": 11808,
      "byteOffset": 34200,
      "byteStride": 16,
      "name": "floatBufferViews",
      "target": 34962
    }
  ],
  "buffers": [
    {
      "byteLength": 46008,
      "uri": "scene.bin"
    }
  ],
  "images": [
    {
      "uri": "textures/tv-retro_baseColor.png"
    },
    {
      "uri": "textures/tv-retro_metallicRoughness.png"
    },
    {
      "uri": "textures/tv-retro_normal.png"
    }
  ],
  "materials": [
    {
      "doubleSided": true,
      "name": "tv-retro",
      "normalTexture": {
        "index": 2
      },
      "occlusionTexture": {
        "index": 1
      },
      "pbrMetallicRoughness": {
        "baseColorTexture": {
          "index": 0
        },
        "metallicRoughnessTexture": {
          "index": 1
        }
      }
    }
  ],
  "meshes": [
    {
      "name": "tv-b_low_tv-retro_0",
      "primitives": [
        {
          "attributes": {
            "NORMAL": 1,
            "POSITION": 0,
            "TANGENT": 2,
            "TEXCOORD_0": 3
          },
          "indices": 4,
          "material": 0,
          "mode": 4
        }
      ]
    },
    {
      "name": "top_low_tv-retro_0",
      "primitives": [
        {
          "attributes": {
            "NORMAL": 6,
            "POSITION": 5,
            "TANGENT": 7,
            "TEXCOORD_0": 8
          },
          "indices": 9,
          "material": 0,
          "mode": 4
        }
      ]
    },
    {
      "name": "sign_low_tv-retro_0",
      "primitives": [
        {
          "attributes": {
            "NORMAL": 11,
            "POSITION": 10,
            "TANGENT": 12,
            "TEXCOORD_0": 13
          },
          "indices": 14,
          "material": 0,
          "mode": 4
        }
      ]
    },
    {
      "name": "h1_low_tv-retro_0",
      "primitives": [
        {
          "attributes": {
            "NORMAL": 16,
            "POSITION": 15,
            "TANGENT": 17,
            "TEXCOORD_0": 18
          },
          "indices": 19,
          "material": 0,
          "mode": 4
        }
      ]
    },
    {
      "name": "tv_low_tv-retro_0",
      "primitives": [
        {
          "attributes": {
            "NORMAL": 21,
            "POSITION": 20,
            "TANGENT": 22,
            "TEXCOORD_0": 23
          },
          "indices": 24,
          "material": 0,
          "mode": 4
        }
      ]
    },
    {
      "name": "h3_low_tv-retro_0",
      "primitives": [
        {
          "attributes": {
            "NORMAL": 26,
            "POSITION": 25,
            "TANGENT": 27,
            "TEXCOORD_0": 28
          },
          "indices": 29,
          "material": 0,
          "mode": 4
        }
      ]
    },
    {
      "name": "h2_low_tv-retro_0",
      "primitives": [
        {
          "attributes": {
            "NORMAL": 31,
            "POSITION": 30,
            "TANGENT": 32,
            "TEXCOORD_0": 33
          },
          "indices": 34,
          "material": 0,
          "mode": 4
        }
      ]
    }
  ],
  "nodes": [
    {
      "children": [
        1
      ],
      "matrix": [
        1.0,
        0.0,
        0.0,
        0.0,
        0.0,
        2.220446049250313e-16,
        -1.0,
        0.0,
        0.0,
        1.0,
        2.220446049250313e-16,
        0.0,
        0.0,
        0.0,
        0.0,
        1.0
      ],
      "name": "Sketchfab_model"
    },
    {
      "children": [
        2
      ],
      "matrix": [
        0.009999999776482582,
        0.0,
        0.0,
        0.0,
        0.0,
        0.0,
        0.009999999776482582,
        0.0,
        0.0,
        -0.009999999776482582,
        0.0,
        0.0,
        0.0,
        0.0,
        0.0,
        1.0
      ],
      "name": "tv_low.fbx"
    },
    {
      "children": [
        3,
        5,
        7,
        9,
        11,
        13,
        15
      ],
      "name": "RootNode"
    },
    {
      "children": [
        4
      ],
      "matrix": [
        100.0,
        0.0,
        0.0,
        0.0,
        0.0,
        -1.629206793918314e-05,
        -99.99999999999868,
        0.0,
        0.0,
        99.99999999999868,
        -1.629206793918314e-05,
        0.0,
        0.0,
        0.0,
        0.0,
        1.0
      ],
      "name": "tv-b_low"
    },
    {
      "mesh": 0,
      "name": "tv-b_low_tv-retro_0"
    },
    {
      "children": [
        6
      ],
      "matrix": [
        100.0,
        0.0,
        0.0,
        0.0,
        0.0,
        -1.629206793918314e-05,
        -99.99999999999868,
        0.0,
        0.0,
        99.99999999999868,
        -1.629206793918314e-05,
        0.0,
        0.0,
        0.0,
        0.0,
        1.0
      ],
      "name": "top_low"
    },
    {
      "mesh": 1,
      "name": "top_low_tv-retro_0"
    },
    {
      "children": [
        8
      ],
      "matrix": [
        100.0,
        0.0,
        0.0,
        0.0,
        0.0,
        -1.629206793918314e-05,
        -99.99999999999868,
        0.0,
        0.0,
        99.99999999999868,
        -1.629206793918314e-05,
        0.0,
        0.0,
        0.0,
        0.0,
        1.0
      ],
      "name": "sign_low"
    },
    {
      "mesh": 2,
      "name": "sign_low_tv-retro_0"
    },
    {
      "children": [
        10
      ],
      "matrix": [
        100.0,
        0.0,
        0.0,
        0.0,
        0.0,
        -1.629206793918314e-05,
        -99.99999999999868,
        0.0,
        0.0,
        99.99999999999868,
        -1.629206793918314e-05,
        0.0,
        0.0,
        0.0,
        0.0,
        1.0
      ],
      "name": "h1_low"
    },
    {
      "mesh": 3,
      "name": "h1_low_tv-retro_0"
    },
    {
      "children": [
        12
      ],
      "matrix": [
        100.0,
        0.0,
        0.0,
        0.0,
        0.0,
        -1.629206793918314e-05,
        -99.99999999999868,
        0.0,
        0.0,
        99.99999999999868,
        -1.629206793918314e-05,
        0.0,
        0.0,
        0.0,
        0.0,
        1.0
      ],
      "name": "tv_low"
    },
    {
      "mesh": 4,
      "name": "tv_low_tv-retro_0"
    },
    {
      "children": [
        14
      ],
      "matrix": [
        100.0,
        0.0,
        0.0,
        0.0,
        0.0,
        -1.629206793918314e-05,
        -99.99999999999868,
        0.0,
        0.0,
        99.99999999999868,
        -1.629206793918314e-05,
        0.0,
        0.0,
        0.0,
        0.0,
        1.0
      ],
      "name": "h3_low"
    },
    {
      "mesh": 5,
      "name": "h3_low_tv-retro_0"
    },
    {
      "children": [
        16
      ],
      "matrix": [
        100.0,
        0.0,
        0.0,
        0.0,
        0.0,
        -1.629206793918314e-05,
        -99.99999999999868,
        0.0,
        0.0,
        99.99999999999868,
        -1.629206793918314e-05,
        0.0,
        0.0,
        0.0,
        0.0,
        1.0
      ],
      "name": "h2_low"
    },
    {
      "mesh": 6,
      "name": "h2_low_tv-retro_0"
    }
  ],
  "samplers": [
    {
      "magFilter": 9729,
      "minFilter": 9987,
      "wrapS": 10497,
      "wrapT": 10497
    }
  ],
  "scene": 0,
  "scenes": [
    {
      "name": "Sketchfab_Scene",
      "nodes": [
        0
      ]
    }
  ],
  "textures": [
    {
      "sampler": 0,
      "source": 0
    },
    {
      "sampler": 0,
      "source": 1
    },
    {
      "sampler": 0,
      "source": 2
    }
  ]
}
