{
  "accessors": [
    {
      "bufferView": 2,
      "componentType": 5126,
      "count": 247,
      "max": [
        0.0613555908203125,
        0.06135702133178711,
        0.0
      ],
      "min": [
        -0.06135749816894531,
        -0.06135702133178711,
        -1.0540502071380615
      ],
      "type": "VEC3"
    },
    {
      "bufferView": 2,
      "byteOffset": 2964,
      "componentType": 5126,
      "count": 247,
      "max": [
        1.0,
        1.0,
        0.9994755983352661
      ],
      "min": [
        -1.0,
        -1.0,
        -1.0
      ],
      "type": "VEC3"
    },
    {
      "bufferView": 3,
      "componentType": 5126,
      "count": 247,
      "max": [
        0.9998136162757874,
        0.9999997019767761,
        1.0,
        1.0
      ],
      "min": [
        -0.9998076558113098,
        -0.9999960064888,
        -0.9999539256095886,
        1.0
      ],
      "type": "VEC4"
    },
    {
      "bufferView": 1,
      "componentType": 5126,
      "count": 247,
      "max": [
        0.19320419430732727,
        0.9737676978111267
      ],
      "min": [
        0.00146484375,
        0.0014648523647338152
      ],
      "type": "VEC2"
    },
    {
      "bufferView": 1,
      "byteOffset": 1976,
      "componentType": 5126,
      "count": 247,
      "max": [
        0.19320419430732727,
        0.9737676978111267
      ],
      "min": [
        0.00146484375,
        0.0014648523647338152
      ],
      "type": "VEC2"
    },
    {
      "bufferView": 1,
      "byteOffset": 3952,
      "componentType": 5126,
      "count": 247,
      "max": [
        0.19320419430732727,
        0.9737676978111267
      ],
      "min": [
        0.00146484375,
        0.0014648523647338152
      ],
      "type": "VEC2"
    },
    {
      "bufferView": 1,
      "byteOffset": 5928,
      "componentType": 5126,
      "count": 247,
      "max": [
        0.19320419430732727,
        0.9737676978111267
      ],
      "min": [
        0.00146484375,
        0.0014648523647338152
      ],
      "type": "VEC2"
    },
    {
      "bufferView": 0,
      "componentType": 5125,
      "count": 1008,
      "type": "SCALAR"
    },
    {
      "bufferView": 2,
      "byteOffset": 5928,
      "componentType": 5126,
      "count": 646,
      "max": [
        0.3476905822753906,
        0.384702205657959,
        -1.0304393768310547
      ],
      "min": [
        -0.41255950927734375,
        -0.37342166900634766,
        -1.7769379615783691
      ],
      "type": "VEC3"
    },
    {
      "bufferView": 2,
      "byteOffset": 13680,
      "componentType": 5126,
      "count": 646,
      "max": [
        0.9907413721084595,
        0.9935976266860962,
        0.9903867840766907
      ],
      "min": [
        -0.9907413721084595,
        -0.9823167324066162,
        -0.9999934434890747
      ],
      "type": "VEC3"
    },
    {
      "bufferView": 3,
      "byteOffset": 3952,
      "componentType": 5126,
      "count": 646,
      "max": [
        0.9999998211860657,
        0.9976047277450562,
        0.993574321269989,
        1.0
      ],
      "min": [
        -0.999535858631134,
        -0.9998469948768616,
        -0.9745709896087646,
        1.0
      ],
      "type": "VEC4"
    },
    {
      "bufferView": 1,
      "byteOffset": 7904,
      "componentType": 5126,
      "count": 646,
      "max": [
        0.7379511594772339,
        0.9824084043502808
      ],
      "min": [
        0.00146484375,
        0.00146484375
      ],
      "type": "VEC2"
    },
    {
      "bufferView": 1,
      "byteOffset": 13072,
      "componentType": 5126,
      "count": 646,
      "max": [
        0.7379511594772339,
        0.9824084043502808
      ],
      "min": [
        0.00146484375,
        0.00146484375
      ],
      "type": "VEC2"
    },
    {
      "bufferView": 1,
      "byteOffset": 18240,
      "componentType": 5126,
      "count": 646,
      "max": [
        0.7379511594772339,
        0.9824084043502808
      ],
      "min": [
        0.00146484375,
        0.00146484375
      ],
      "type": "VEC2"
    },
    {
      "bufferView": 1,
      "byteOffset": 23408,
      "componentType": 5126,
      "count": 646,
      "max": [
        0.7379511594772339,
        0.9824084043502808
      ],
      "min": [
        0.00146484375,
        0.00146484375
      ],
      "type": "VEC2"
    },
    {
      "bufferView": 0,
      "byteOffset": 4032,
      "componentType": 5125,
      "count": 3042,
      "type": "SCALAR"
    },
    {
      "bufferView": 2,
      "byteOffset": 21432,
      "componentType": 5126,
      "count": 286,
      "max": [
        0.06831932067871094,
        0.1083827018737793,
        -1.0936551094055176
      ],
      "min": [
        -0.1406726837158203,
        -0.10003137588500977,
        -1.3839373588562012
      ],
      "type": "VEC3"
    },
    {
      "bufferView": 2,
      "byteOffset": 24864,
      "componentType": 5126,
      "count": 286,
      "max": [
        0.996990442276001,
        0.999754786491394,
        0.9999980926513672
      ],
      "min": [
        -0.9969319701194763,
        -0.9886519908905029,
        -1.0
      ],
      "type": "VEC3"
    },
    {
      "bufferView": 3,
      "byteOffset": 14288,
      "componentType": 5126,
      "count": 286,
      "max": [
        0.9846522808074951,
        0.9878067374229431,
        0.9997536540031433,
        1.0
      ],
      "min": [
        -0.9923107028007507,
        -0.9912700653076172,
        -0.2912648022174835,
        1.0
      ],
      "type": "VEC4"
    },
    {
      "bufferView": 1,
      "byteOffset": 28576,
      "componentType": 5126,
      "count": 286,
      "max": [
        0.99853515625,
        0.9944671988487244
      ],
      "min": [
        0.12030445784330368,
        0.5512494444847107
      ],
      "type": "VEC2"
    },
    {
      "bufferView": 1,
      "byteOffset": 30864,
      "componentType": 5126,
      "count": 286,
      "max": [
        0.99853515625,
        0.9944671988487244
      ],
      "min": [
        0.12030445784330368,
        0.5512494444847107
      ],
      "type": "VEC2"
    },
    {
      "bufferView": 1,
      "byteOffset": 33152,
      "componentType": 5126,
      "count": 286,
      "max": [
        0.99853515625,
        0.9944671988487244
      ],
      "min": [
        0.12030445784330368,
        0.5512494444847107
      ],
      "type": "VEC2"
    },
    {
      "bufferView": 1,
      "byteOffset": 35440,
      "componentType": 5126,
      "count": 286,
      "max": [
        0.99853515625,
        0.9944671988487244
      ],
      "min": [
        0.12030445784330368,
        0.5512494444847107
      ],
      "type": "VEC2"
    },
    {
      "bufferView": 0,
      "byteOffset": 16200,
      "componentType": 5125,
      "count": 1386,
      "type": "SCALAR"
    }
  ],
  "asset": {
    "extras": {
      "author": "Sousinho (https://sketchfab.com/sousinho)",
      "license": "SKETCHFAB Standard (https://sketchfab.com/licenses)",
      "source": "https://sketchfab.com/3d-models/lamp-77739989860a4158b02998985e06a6f0",
      "title": "lamp"
    },
    "generator": "Sketchfab-16.45.0",
    "version": "2.0"
  },
  "bufferViews": [
    {
      "buffer": 0,
      "byteLength": 21744,
      "name": "floatBufferViews",
      "target": 34963
    },
    {
      "buffer": 0,
      "byteLength": 37728,
      "byteOffset": 21744,
      "byteStride": 8,
      "name": "floatBufferViews",
      "target": 34962
    },
    {
      "buffer": 0,
      "byteLength": 28296,
      "byteOffset": 59472,
      "byteStride": 12,
      "name": "floatBufferViews",
      "target": 34962
    },
    {
      "buffer": 0,
      "byteLength": 18864,
      "byteOffset": 87768,
      "byteStride": 16,
      "name": "floatBufferViews",
      "target": 34962
    }
  ],
  "buffers": [
    {
      "byteLength": 106632,
      "uri": "scene.bin"
    }
  ],
  "extensionsUsed": [
    "KHR_materials_emissive_strength"
  ],
  "images": [
    {
      "uri": "textures/M_Lamp_baseColor.png"
    },
    {
      "uri": "textures/M_Lamp_metallicRoughness.png"
    },
    {
      "uri": "textures/M_Lamp_emissive.png"
    },
    {
      "uri": "textures/M_Lamp_normal.png"
    }
  ],
  "materials": [
    {
      "doubleSided": true,
      "emissiveFactor": [
        1.0,
        1.0,
        1.0
      ],
      "emissiveTexture": {
        "index": 2
      },
      "extensions": {
        "KHR_materials_emissive_strength": {
          "emissiveStrength": 10.0
        }
      },
      "name": "M_Lamp",
      "normalTexture": {
        "index": 3
      },
      "pbrMetallicRoughness": {
        "baseColorTexture": {
          "index": 0
        },
        "metallicRoughnessTexture": {
          "index": 1
        }
      }
    }
  ],
  "meshes": [
    {
      "name": "SM_Light_M_Lamp_0",
      "primitives": [
        {
          "attributes": {
            "NORMAL": 1,
            "POSITION": 0,
            "TANGENT": 2,
            "TEXCOORD_0": 3,
            "TEXCOORD_1": 4,
            "TEXCOORD_2": 5,
            "TEXCOORD_3": 6
          },
          "indices": 7,
          "material": 0,
          "mode": 4
        }
      ]
    },
    {
      "name": "SM_Light_bulb_M_Lamp_0",
      "primitives": [
        {
          "attributes": {
            "NORMAL": 9,
            "POSITION": 8,
            "TANGENT": 10,
            "TEXCOORD_0": 11,
            "TEXCOORD_1": 12,
            "TEXCOORD_2": 13,
            "TEXCOORD_3": 14
          },
          "indices": 15,
          "material": 0,
          "mode": 4
        }
      ]
    },
    {
      "name": "SM_Light.002_M_Lamp_0",
      "primitives": [
        {
          "attributes": {
            "NORMAL": 17,
            "POSITION": 16,
            "TANGENT": 18,
            "TEXCOORD_0": 19,
            "TEXCOORD_1": 20,
            "TEXCOORD_2": 21,
            "TEXCOORD_3": 22
          },
          "indices": 23,
          "material": 0,
          "mode": 4
        }
      ]
    }
  ],
  "nodes": [
    {
      "children": [
        1
      ],
      "matrix": [
        1.0,
        0.0,
        0.0,
        0.0,
        0.0,
        2.220446049250313e-16,
        -1.0,
        0.0,
        0.0,
        1.0,
        2.220446049250313e-16,
        0.0,
        0.0,
        0.0,
        0.0,
        1.0
      ],
      "name": "Sketchfab_model"
    },
    {
      "children": [
        2
      ],
      "matrix": [
        0.009999999776482582,
        0.0,
        0.0,
        0.0,
        0.0,
        0.0,
        0.009999999776482582,
        0.0,
        0.0,
        -0.009999999776482582,
        0.0,
        0.0,
        0.0,
        0.0,
        0.0,
        1.0
      ],
      "name": "dae0c35cfe1d4cc29f83dcf72a6e4411.fbx"
    },
    {
      "children": [
        3
      ],
      "name": "RootNode"
    },
    {
      "children": [
        4,
        5,
        7
      ],
      "matrix": [
        100.0,
        0.0,
        0.0,
        0.0,
        0.0,
        -1.629206793918314e-05,
        -99.99999999999868,
        0.0,
        0.0,
        99.99999999999868,
        -1.629206793918314e-05,
        0.0,
        2110.30078125,
        340.61865234375,
        -433.8104248046875,
        1.0
      ],
      "name": "SM_Light"
    },
    {
      "mesh": 0,
      "name": "SM_Light_M_Lamp_0"
    },
    {
      "children": [
        6
      ],
      "matrix": [
        1.0,
        0.0,
        0.0,
        0.0,
        0.0,
        1.0,
        -2.646977960169688e-23,
        0.0,
        0.0,
        2.646977960169688e-23,
        1.0,
        0.0,
        0.0,
        0.0,
        0.0,
        1.0
      ],
      "name": "SM_Light_bulb"
    },
    {
      "mesh": 1,
      "name": "SM_Light_bulb_M_Lamp_0"
    },
    {
      "children": [
        8
      ],
      "matrix": [
        1.0,
        0.0,
        0.0,
        0.0,
        0.0,
        1.0,
        -2.646977960169688e-23,
        0.0,
        0.0,
        2.646977960169688e-23,
        1.0,
        0.0,
        0.0,
        0.0,
        0.0,
        1.0
      ],
      "name": "SM_Light.002"
    },
    {
      "mesh": 2,
      "name": "SM_Light.002_M_Lamp_0"
    }
  ],
  "samplers": [
    {
      "magFilter": 9729,
      "minFilter": 9987,
      "wrapS": 10497,
      "wrapT": 10497
    }
  ],
  "scene": 0,
  "scenes": [
    {
      "name": "Sketchfab_Scene",
      "nodes": [
        0
      ]
    }
  ],
  "textures": [
    {
      "sampler": 0,
      "source": 0
    },
    {
      "sampler": 0,
      "source": 1
    },
    {
      "sampler": 0,
      "source": 2
    },
    {
      "sampler": 0,
      "source": 3
    }
  ]
}
