{
  "accessors": [
    {
      "bufferView": 2,
      "componentType": 5126,
      "count": 12941,
      "max": [
        0.08180470764636993,
        0.12578408420085907,
        0.1082034558057785
      ],
      "min": [
        -0.0995059385895729,
        -0.11960364878177643,
        -0.07616647332906723
      ],
      "type": "VEC3"
    },
    {
      "bufferView": 2,
      "byteOffset": 155292,
      "componentType": 5126,
      "count": 12941,
      "max": [
        0.9999600648880005,
        0.9999999403953552,
        0.9999679923057556
      ],
      "min": [
        -0.9999901652336121,
        -0.9850057363510132,
        -0.9999846816062927
      ],
      "type": "VEC3"
    },
    {
      "bufferView": 1,
      "componentType": 5126,
      "count": 12941,
      "max": [
        0.9988953471183777,
        0.9972981214523315
      ],
      "min": [
        0.001347302575595677,
        8.577167318435386e-05
      ],
      "type": "VEC2"
    },
    {
      "bufferView": 1,
      "byteOffset": 103528,
      "componentType": 5126,
      "count": 12941,
      "max": [
        0.9988953471183777,
        0.9972981214523315
      ],
      "min": [
        0.001347302575595677,
        8.577167318435386e-05
      ],
      "type": "VEC2"
    },
    {
      "bufferView": 1,
      "byteOffset": 207056,
      "componentType": 5126,
      "count": 12941,
      "max": [
        0.9988953471183777,
        0.9972981214523315
      ],
      "min": [
        0.001347302575595677,
        8.577167318435386e-05
      ],
      "type": "VEC2"
    },
    {
      "bufferView": 0,
      "componentType": 5125,
      "count": 66687,
      "type": "SCALAR"
    }
  ],
  "asset": {
    "extras": {
      "author": "uttamg911 (https://sketchfab.com/uttamg911)",
      "license": "CC-BY-NC-SA-4.0 (http://creativecommons.org/licenses/by-nc-sa/4.0/)",
      "source": "https://sketchfab.com/3d-models/day-285-steam-iron-17a183e64c1a43bdab6827b5a6651e0d",
      "title": "Day 285: Steam Iron"
    },
    "generator": "Sketchfab-13.37.1",
    "version": "2.0"
  },
  "bufferViews": [
    {
      "buffer": 0,
      "byteLength": 266748,
      "name": "floatBufferViews",
      "target": 34963
    },
    {
      "buffer": 0,
      "byteLength": 310584,
      "byteOffset": 266748,
      "byteStride": 8,
      "name": "floatBufferViews",
      "target": 34962
    },
    {
      "buffer": 0,
      "byteLength": 310584,
      "byteOffset": 577332,
      "byteStride": 12,
      "name": "floatBufferViews",
      "target": 34962
    }
  ],
  "buffers": [
    {
      "byteLength": 887916,
      "uri": "scene.bin"
    }
  ],
  "extensionsUsed": [
    "KHR_materials_unlit"
  ],
  "images": [
    {
      "uri": "textures/material_0_baseColor.jpeg"
    }
  ],
  "materials": [
    {
      "extensions": {
        "KHR_materials_unlit": {}
      },
      "name": "material_0",
      "pbrMetallicRoughness": {
        "baseColorTexture": {
          "index": 0
        },
        "metallicFactor": 0.0
      }
    }
  ],
  "meshes": [
    {
      "name": "Object_0",
      "primitives": [
        {
          "attributes": {
            "NORMAL": 1,
            "POSITION": 0,
            "TEXCOORD_0": 2,
            "TEXCOORD_1": 3,
            "TEXCOORD_2": 4
          },
          "indices": 5,
          "material": 0,
          "mode": 4
        }
      ]
    }
  ],
  "nodes": [
    {
      "children": [
        1
      ],
      "matrix": [
        1.0,
        0.0,
        0.0,
        0.0,
        0.0,
        2.220446049250313e-16,
        -1.0,
        0.0,
        0.0,
        1.0,
        2.220446049250313e-16,
        0.0,
        0.0,
        0.0,
        0.0,
        1.0
      ],
      "name": "Sketchfab_model"
    },
    {
      "children": [
        2
      ],
      "name": "root"
    },
    {
      "children": [
        3
      ],
      "matrix": [
        1.0,
        0.0,
        0.0,
        0.0,
        0.0,
        2.220446049250313e-16,
        1.0,
        0.0,
        0.0,
        -1.0,
        2.220446049250313e-16,
        0.0,
        0.0,
        0.0,
        0.0,
        1.0
      ],
      "name": "GLTF_SceneRootNode"
    },
    {
      "children": [
        4
      ],
      "name": "_0"
    },
    {
      "mesh": 0,
      "name": "Object_4"
    }
  ],
  "samplers": [
    {
      "magFilter": 9729,
      "minFilter": 9987,
      "wrapS": 10497,
      "wrapT": 10497
    }
  ],
  "scene": 0,
  "scenes": [
    {
      "name": "Sketchfab_Scene",
      "nodes": [
        0
      ]
    }
  ],
  "textures": [
    {
      "sampler": 0,
      "source": 0
    }
  ]
}
